# 3ds Max Wavefront OBJ Exporter v0.97b - (c)2007 guruware
# File Created: 23.10.2022 22:47:11

#
# object handcuff
#

v  -2.2268 10.1639 17.3395
v  2.6450 9.9028 17.3395
v  2.6450 4.9514 8.7634
v  -2.2268 5.0819 8.5373
v  2.1759 7.1919 17.3395
v  2.1759 3.5959 11.1111
v  -2.6959 7.4529 17.3395
v  -2.6959 3.7265 10.8850
v  2.1759 -3.5959 11.1111
v  2.6450 -4.9514 8.7634
v  -2.6959 -3.7265 10.8850
v  -2.2268 -5.0819 8.5373
v  2.6450 -9.9028 17.3395
v  -2.2268 -10.1639 17.3395
v  2.1759 -7.1919 17.3395
v  -2.6959 -7.4529 17.3395
v  2.6450 -4.9514 25.9156
v  -2.2268 -5.0819 26.1416
v  2.1759 -3.5959 23.5678
v  -2.6959 -3.7265 23.7939
v  2.6450 4.9514 25.9156
v  -2.2268 5.0819 26.1416
v  2.1759 3.5959 23.5678
v  -2.6959 3.7265 23.7939
v  1.8944 2.3952 -0.3248
v  -1.4935 2.4947 -0.3248
v  1.8944 -2.3952 -0.3248
v  -1.4935 -2.4947 -0.3248
v  -2.2268 10.1639 -17.2875
v  -2.2268 5.0819 -8.4853
v  2.6450 4.9514 -8.7113
v  2.6450 9.9028 -17.2875
v  2.1759 3.5959 -11.0591
v  2.1759 7.1919 -17.2875
v  -2.6959 3.7265 -10.8330
v  -2.6959 7.4529 -17.2875
v  2.6450 -4.9514 -8.7113
v  2.1759 -3.5959 -11.0591
v  -2.6959 -3.7265 -10.8330
v  -2.2268 -5.0819 -8.4853
v  -2.2268 -10.1639 -17.2875
v  2.6450 -9.9028 -17.2875
v  2.1759 -7.1919 -17.2875
v  -2.6959 -7.4529 -17.2875
v  -2.2268 -5.0819 -26.0896
v  2.6450 -4.9514 -25.8636
v  2.1759 -3.5959 -23.5158
v  -2.6959 -3.7265 -23.7419
v  -2.2268 5.0819 -26.0896
v  2.6450 4.9514 -25.8636
v  2.1759 3.5959 -23.5158
v  -2.6959 3.7265 -23.7419
# 52 vertices

vn -0.5439 0.8392 0.0000
vn 0.6724 0.7401 -0.0000
vn 0.7793 0.5810 -0.2349
vn -0.6919 0.6491 -0.3161
vn 0.7727 -0.6347 -0.0000
vn 0.7727 -0.3174 0.5497
vn -0.8926 -0.4509 -0.0000
vn -0.8926 -0.2254 0.3905
vn 0.7727 0.3174 0.5497
vn 0.7793 -0.5810 -0.2349
vn -0.8926 0.2254 0.3905
vn -0.6919 -0.6491 -0.3161
vn 0.6724 -0.7402 -0.0000
vn -0.5439 -0.8392 0.0000
vn 0.7727 0.6347 -0.0000
vn -0.8926 0.4509 -0.0000
vn 0.6724 -0.3701 0.6410
vn -0.5439 -0.4196 0.7267
vn 0.7727 0.3174 -0.5497
vn -0.8926 0.2254 -0.3905
vn 0.6724 0.3701 0.6410
vn -0.5439 0.4196 0.7267
vn 0.7727 -0.3174 -0.5497
vn -0.8926 -0.2254 -0.3905
vn 0.7835 0.6214 0.0086
vn -0.7523 0.6588 0.0096
vn 0.7835 -0.6214 0.0086
vn -0.7523 -0.6588 0.0096
vn -0.5439 0.8392 -0.0000
vn -0.6887 0.6479 0.3254
vn 0.7773 0.5803 0.2430
vn 0.6724 0.7401 0.0000
vn 0.7773 -0.5803 0.2430
vn -0.6887 -0.6479 0.3254
vn 0.6724 -0.7401 0.0000
vn -0.5439 -0.4196 -0.7267
vn 0.6724 -0.3701 -0.6410
vn -0.5439 0.4196 -0.7267
vn 0.6724 0.3701 -0.6410
# 39 vertex normals

vt 0.0000 0.0000 0.0000
vt 0.2500 0.0000 0.0000
vt 0.2500 0.1667 0.0000
vt 0.0000 0.1667 0.0000
vt 0.5000 0.0000 0.0000
vt 0.5000 0.1667 0.0000
vt 0.7500 0.0000 0.0000
vt 0.7500 0.1667 0.0000
vt 1.0000 0.0000 0.0000
vt 1.0000 0.1667 0.0000
vt 0.5000 0.3333 0.0000
vt 0.2500 0.3333 0.0000
vt 0.7500 0.3333 0.0000
vt 1.0000 0.3333 0.0000
vt 0.0000 0.3333 0.0000
vt 0.2500 0.5000 0.0000
vt 0.0000 0.5000 0.0000
vt 0.5000 0.5000 0.0000
vt 0.7500 0.5000 0.0000
vt 1.0000 0.5000 0.0000
vt 0.2500 0.6667 0.0000
vt 0.0000 0.6667 0.0000
vt 0.5000 0.6667 0.0000
vt 0.7500 0.6667 0.0000
vt 1.0000 0.6667 0.0000
vt 0.2500 0.8333 0.0000
vt 0.0000 0.8333 0.0000
vt 0.5000 0.8333 0.0000
vt 0.7500 0.8333 0.0000
vt 1.0000 0.8333 0.0000
vt 0.2500 1.0000 0.0000
vt 0.0000 1.0000 0.0000
vt 0.5000 1.0000 0.0000
vt 0.7500 1.0000 0.0000
vt 1.0000 1.0000 0.0000
# 35 texture coords

o handcuff
g handcuff
s 1
f 1/1/1 2/2/2 3/3/3 4/4/4 
f 2/2/2 5/5/5 6/6/6 3/3/3 
f 5/5/5 7/7/7 8/8/8 6/6/6 
f 7/7/7 1/9/1 4/10/4 8/8/8 
f 3/3/3 6/6/6 9/11/9 10/12/10 
f 6/6/6 8/8/8 11/13/11 9/11/9 
f 8/8/8 4/10/4 12/14/12 11/13/11 
f 12/15/12 10/12/10 13/16/13 14/17/14 
f 10/12/10 9/11/9 15/18/15 13/16/13 
f 9/11/9 11/13/11 16/19/16 15/18/15 
f 11/13/11 12/14/12 14/20/14 16/19/16 
f 14/17/14 13/16/13 17/21/17 18/22/18 
f 13/16/13 15/18/15 19/23/19 17/21/17 
f 15/18/15 16/19/16 20/24/20 19/23/19 
f 16/19/16 14/20/14 18/25/18 20/24/20 
f 18/22/18 17/21/17 21/26/21 22/27/22 
f 17/21/17 19/23/19 23/28/23 21/26/21 
f 19/23/19 20/24/20 24/29/24 23/28/23 
f 20/24/20 18/25/18 22/30/22 24/29/24 
f 22/27/22 21/26/21 2/31/2 1/32/1 
f 21/26/21 23/28/23 5/33/5 2/31/2 
f 23/28/23 24/29/24 7/34/7 5/33/5 
f 24/29/24 22/30/22 1/35/1 7/34/7 
s off
f 4/4/4 3/3/3 25/3/25 26/4/26 
f 3/3/3 10/12/10 27/12/27 25/3/25 
f 10/12/10 12/15/12 28/15/28 27/12/27 
f 12/15/12 4/4/4 26/4/26 28/15/28 
s 1
f 29/1/29 30/4/30 31/3/31 32/2/32 
f 32/2/32 31/3/31 33/6/23 34/5/5 
f 34/5/5 33/6/23 35/8/24 36/7/7 
f 36/7/7 35/8/24 30/10/30 29/9/29 
f 31/3/31 37/12/33 38/11/19 33/6/23 
f 33/6/23 38/11/19 39/13/20 35/8/24 
f 35/8/24 39/13/20 40/14/34 30/10/30 
f 40/15/34 41/17/14 42/16/35 37/12/33 
f 37/12/33 42/16/35 43/18/15 38/11/19 
f 38/11/19 43/18/15 44/19/16 39/13/20 
f 39/13/20 44/19/16 41/20/14 40/14/34 
f 41/17/14 45/22/36 46/21/37 42/16/35 
f 42/16/35 46/21/37 47/23/9 43/18/15 
f 43/18/15 47/23/9 48/24/11 44/19/16 
f 44/19/16 48/24/11 45/25/36 41/20/14 
f 45/22/36 49/27/38 50/26/39 46/21/37 
f 46/21/37 50/26/39 51/28/6 47/23/9 
f 47/23/9 51/28/6 52/29/8 48/24/11 
f 48/24/11 52/29/8 49/30/38 45/25/36 
f 49/27/38 29/32/29 32/31/32 50/26/39 
f 50/26/39 32/31/32 34/33/5 51/28/6 
f 51/28/6 34/33/5 36/34/7 52/29/8 
f 52/29/8 36/34/7 29/35/29 49/30/38 
s off
f 30/4/30 26/4/26 25/3/25 31/3/31 
f 31/3/31 25/3/25 27/12/27 37/12/33 
f 37/12/33 27/12/27 28/15/28 40/15/34 
f 40/15/34 28/15/28 26/4/26 30/4/30 
# 54 polygons

